PathFileType	4	(X/Y/Z)	/home/nbianco/projects/addbio/data/HamnerRunning2013/Processed/subject19//results/MarkerData/run200.trc
DataRate	CameraRate	NumFrames	NumMarkers	Units	OrigDataRate	OrigDataStartFrame	OrigNumFrames
120.005	120.005	8	42	m	120.005	102	274
Frame#	Time	C7			CLAV			LACR			LASI			LCAL			LFAradius			LFAsuperior			LFAulna			LLEL			LMEL			LMT5			LPSI			LTB1			LTB2			LTB3			LTH1			LTH2			LTH3			LTOE			LUA1			LUA2			LUA3			RACR			RASI			RCAL			RFAradius			RFAsuperior			RFAulna			RLEL			RMEL			RMT5			RPSI			RTB1			RTB2			RTB3			RTH1			RTH2			RTH3			RTOE			RUA1			RUA2			RUA3		
		X1	Y1	Z1	X2	Y2	Z2	X3	Y3	Z3	X4	Y4	Z4	X5	Y5	Z5	X6	Y6	Z6	X7	Y7	Z7	X8	Y8	Z8	X9	Y9	Z9	X10	Y10	Z10	X11	Y11	Z11	X12	Y12	Z12	X13	Y13	Z13	X14	Y14	Z14	X15	Y15	Z15	X16	Y16	Z16	X17	Y17	Z17	X18	Y18	Z18	X19	Y19	Z19	X20	Y20	Z20	X21	Y21	Z21	X22	Y22	Z22	X23	Y23	Z23	X24	Y24	Z24	X25	Y25	Z25	X26	Y26	Z26	X27	Y27	Z27	X28	Y28	Z28	X29	Y29	Z29	X30	Y30	Z30	X31	Y31	Z31	X32	Y32	Z32	X33	Y33	Z33	X34	Y34	Z34	X35	Y35	Z35	X36	Y36	Z36	X37	Y37	Z37	X38	Y38	Z38	X39	Y39	Z39	X40	Y40	Z40	X41	Y41	Z41	X42	Y42	Z42

103	1.01667	0.997654	1.48631	-0.32578	1.10456	1.3957	-0.29152	1.04476	1.45772	-0.501625	1.06567	0.973424	-0.445733	0.644785	0.38597	-0.40545	1.10698	1.10927	-0.485508	0.968403	1.17651	-0.606155	1.07986	1.05146	-0.510585	0.892899	1.21062	-0.621163	0.85261	1.21328	-0.558144	0.664992	0.181758	-0.466269	0.89458	1.00592	-0.394138	0.986314	0.380175	-0.428013	0.880486	0.382903	-0.474126	0.800788	0.32249	-0.412548	1.02125	0.796333	-0.508191	1.10166	0.704251	-0.489076	1.04321	0.575344	-0.478029	0.700999	0.190182	-0.363612	1.00757	1.38857	-0.557426	0.9356	1.34919	-0.539817	0.980812	1.28802	-0.582331	1.02492	1.42727	-0.135008	1.04855	0.978468	-0.21134	0.889397	0.0871517	-0.353631	0.951685	0.935514	-0.0847287	0.884438	1.10919	-0.0681743	0.885677	0.921175	-0.102131	0.828467	1.18183	-0.0900022	0.821034	1.18376	-0.155132	1.08785	0.0476122	-0.268916	0.8843	1.00743	-0.292875	1.13024	0.367804	-0.312648	1.06531	0.321635	-0.255706	1.05269	0.203578	-0.328998	1.01076	0.815479	-0.167246	1.11626	0.692151	-0.202802	1.07872	0.589702	-0.228968	1.10245	0.0751196	-0.376779	0.982785	1.34749	-0.0937848	0.966978	1.26098	-0.111372	0.882778	1.27818	-0.104745
104	1.025	0.996733	1.48118	-0.324881	1.10441	1.39049	-0.292234	1.0413	1.45294	-0.501238	1.06392	0.968064	-0.444856	0.656385	0.386371	-0.405044	1.10017	1.09289	-0.490177	0.961326	1.16909	-0.604951	1.0697	1.03698	-0.516001	0.88668	1.20639	-0.618099	0.847832	1.20869	-0.554115	0.678682	0.184692	-0.47291	0.892653	1.00145	-0.394451	0.998899	0.379857	-0.431377	0.89273	0.38305	-0.47644	0.813055	0.322646	-0.414861	1.02231	0.792495	-0.508282	1.10758	0.702421	-0.490442	1.05338	0.572264	-0.480736	0.71415	0.189695	-0.369808	1.00275	1.38426	-0.556244	0.931247	1.34359	-0.536228	0.975362	1.28367	-0.580706	1.02582	1.421	-0.133966	1.04613	0.973602	-0.21054	0.87271	0.0871429	-0.35426	0.964275	0.926116	-0.0853926	0.895092	1.0976	-0.0668558	0.897377	0.910433	-0.100962	0.83622	1.16912	-0.086231	0.827313	1.17057	-0.151456	1.07107	0.0474812	-0.26928	0.881537	1.00317	-0.294022	1.1219	0.362748	-0.313362	1.05549	0.318485	-0.256346	1.03918	0.20088	-0.329665	1.00655	0.810907	-0.167711	1.11268	0.687575	-0.203153	1.07446	0.585162	-0.229165	1.08582	0.074904	-0.377264	0.986583	1.3383	-0.0936793	0.972193	1.25178	-0.111562	0.887939	1.26712	-0.101143
105	1.03333	0.995811	1.47689	-0.324071	1.10418	1.38614	-0.292906	1.03808	1.4489	-0.500743	1.06205	0.963588	-0.44415	0.668427	0.38559	-0.404695	1.09296	1.07723	-0.49491	0.95445	1.16272	-0.603009	1.05889	1.02371	-0.521287	0.880517	1.20287	-0.614878	0.8434	1.20465	-0.550003	0.693634	0.186742	-0.479319	0.890769	0.997878	-0.395031	1.01192	0.380083	-0.434903	0.90533	0.38369	-0.478634	0.826028	0.322522	-0.417077	1.02336	0.789466	-0.508449	1.11353	0.701998	-0.491524	1.0637	0.570737	-0.483367	0.728497	0.188519	-0.375904	0.998194	1.38069	-0.554915	0.927295	1.33884	-0.532208	0.969902	1.28032	-0.579152	1.02683	1.41562	-0.133059	1.04368	0.969903	-0.209269	0.856094	0.0873189	-0.354321	0.977848	0.918341	-0.0864231	0.906533	1.08749	-0.0658914	0.910513	0.900945	-0.100127	0.844584	1.15757	-0.082488	0.834108	1.15863	-0.147797	1.05437	0.0471845	-0.269354	0.878889	0.999765	-0.295788	1.11262	0.358137	-0.313299	1.04512	0.315811	-0.256023	1.02535	0.198662	-0.329349	1.00239	0.806793	-0.167886	1.10834	0.683229	-0.202975	1.06942	0.580932	-0.228771	1.06916	0.074801	-0.377377	0.990264	1.33058	-0.0936972	0.977767	1.24373	-0.112086	0.893499	1.25749	-0.0979531
106	1.04167	0.994916	1.47357	-0.323344	1.10384	1.38273	-0.293515	1.03519	1.44567	-0.50029	1.06017	0.96015	-0.443956	0.680851	0.383629	-0.404517	1.08517	1.0627	-0.499493	0.947759	1.15771	-0.600844	1.04745	1.01199	-0.526552	0.874364	1.20025	-0.611715	0.839159	1.20136	-0.54605	0.709804	0.187828	-0.485365	0.88899	0.995243	-0.395657	1.02529	0.380621	-0.438258	0.91829	0.384713	-0.480642	0.839638	0.322164	-0.419187	1.02439	0.787089	-0.508749	1.11924	0.702926	-0.492427	1.07387	0.570644	-0.48556	0.743882	0.186631	-0.381696	0.994007	1.37777	-0.553626	0.92382	1.33502	-0.528062	0.964466	1.27785	-0.577633	1.02796	1.41139	-0.132335	1.04139	0.967174	-0.207765	0.839489	0.0876131	-0.354202	0.99228	0.91272	-0.0877435	0.918164	1.07936	-0.0652229	0.924974	0.893263	-0.0995723	0.853246	1.14763	-0.0790268	0.840975	1.14855	-0.144236	1.03764	0.0468204	-0.269275	0.876785	0.997186	-0.297471	1.10232	0.35392	-0.312693	1.03411	0.31325	-0.255199	1.01113	0.196779	-0.328703	0.998325	0.803482	-0.167695	1.10319	0.67913	-0.202278	1.06343	0.57706	-0.22785	1.05246	0.0747187	-0.377254	0.993581	1.32465	-0.0936901	0.98342	1.23726	-0.112758	0.899044	1.24956	-0.0954502
107	1.05	0.994108	1.47132	-0.322676	1.10342	1.38031	-0.294079	1.03265	1.44335	-0.499983	1.05843	0.957879	-0.444384	0.69355	0.380497	-0.404602	1.07664	1.04973	-0.503704	0.941049	1.15418	-0.599046	1.03552	1.00217	-0.53174	0.86815	1.1988	-0.608722	0.834913	1.1991	-0.542333	0.727167	0.187872	-0.490916	0.887354	0.993647	-0.396154	1.03887	0.381508	-0.44086	0.931581	0.385924	-0.482393	0.853805	0.32162	-0.421205	1.02531	0.785449	-0.509183	1.1245	0.70511	-0.493241	1.08366	0.571843	-0.487147	0.760254	0.184058	-0.386988	0.990184	1.37559	-0.552503	0.920774	1.33225	-0.524149	0.959119	1.27621	-0.57611	1.02924	1.40854	-0.131825	1.03936	0.96518	-0.206393	0.822824	0.0880119	-0.354173	1.00737	0.909692	-0.089256	0.929424	1.07357	-0.0647468	0.9405	0.887894	-0.099234	0.861797	1.13968	-0.0761053	0.847519	1.14059	-0.140962	1.02081	0.0464226	-0.269205	0.87537	0.995512	-0.298541	1.09101	0.350089	-0.311813	1.02224	0.310672	-0.254386	0.996433	0.195132	-0.328163	0.994388	0.801284	-0.167266	1.09729	0.675402	-0.201198	1.05635	0.573694	-0.226642	1.0357	0.0746301	-0.377027	0.99651	1.32068	-0.0935199	0.988839	1.23268	-0.113351	0.904238	1.2435	-0.0937539
108	1.05833	0.993439	1.47019	-0.322055	1.10297	1.37894	-0.294638	1.03041	1.442	-0.499831	1.05697	0.956833	-0.445282	0.706397	0.376191	-0.404983	1.06733	1.03879	-0.507308	0.934055	1.15216	-0.597893	1.02334	0.994564	-0.53671	0.861805	1.19873	-0.60588	0.830584	1.19817	-0.538802	0.745692	0.186814	-0.495849	0.885869	0.993168	-0.396472	1.0525	0.383026	-0.442217	0.945108	0.38713	-0.483801	0.868446	0.320862	-0.423035	1.02606	0.784806	-0.509729	1.12922	0.708433	-0.494003	1.09292	0.574283	-0.488156	0.777689	0.180902	-0.391639	0.986652	1.37435	-0.551563	0.918013	1.33072	-0.520743	0.95393	1.27552	-0.57458	1.0307	1.4072	-0.131501	1.03765	0.96377	-0.205464	0.806102	0.0885401	-0.354293	1.02284	0.909523	-0.0908825	0.939968	1.07023	-0.0643488	0.956792	0.885163	-0.0991108	0.869861	1.13394	-0.0738747	0.853525	1.13467	-0.138211	1.0039	0.0460148	-0.269198	0.874466	0.994862	-0.298936	1.07876	0.34674	-0.310826	1.00931	0.308235	-0.253916	0.981282	0.193736	-0.327795	0.990619	0.800261	-0.166826	1.09075	0.672217	-0.199945	1.04814	0.571016	-0.225459	1.01891	0.0745331	-0.376775	0.999201	1.31867	-0.0931352	0.993827	1.23016	-0.113641	0.908942	1.23937	-0.0927866
109	1.06667	0.992921	1.47015	-0.321509	1.10258	1.3787	-0.295227	1.02838	1.44166	-0.499769	1.05576	0.956959	-0.446325	0.719291	0.370693	-0.405611	1.05739	1.03027	-0.510178	0.92663	1.15162	-0.597251	1.01119	0.989402	-0.541369	0.855304	1.20017	-0.603104	0.826201	1.19882	-0.535365	0.765318	0.184634	-0.50005	0.884524	0.9938	-0.396625	1.06604	0.385494	-0.442281	0.958721	0.388219	-0.484796	0.883479	0.319766	-0.424354	1.02661	0.785389	-0.510358	1.13338	0.712774	-0.494691	1.10151	0.577992	-0.488721	0.796312	0.177326	-0.395583	0.983307	1.37424	-0.550753	0.915343	1.33062	-0.51794	0.948923	1.27592	-0.573074	1.03236	1.40744	-0.131279	1.0363	0.962963	-0.205072	0.789407	0.0892468	-0.354442	1.03843	0.912277	-0.0925906	0.94971	1.06926	-0.0639558	0.973538	0.885163	-0.0992913	0.877211	1.13045	-0.072315	0.859068	1.13061	-0.136174	0.986945	0.0456566	-0.269194	0.873777	0.995294	-0.298914	1.06569	0.344065	-0.309822	0.995295	0.306268	-0.253853	0.965768	0.192705	-0.327462	0.987029	0.800245	-0.166528	1.08366	0.669722	-0.198798	1.03892	0.569189	-0.224548	1.00212	0.0744377	-0.376502	1.00184	1.31853	-0.0926013	0.998379	1.22963	-0.113498	0.913205	1.23716	-0.0923094
110	1.075	0.992519	1.47113	-0.321092	1.1023	1.37963	-0.295868	1.02647	1.44231	-0.499723	1.05471	0.958095	-0.447147	0.732191	0.363985	-0.406379	1.04716	1.02444	-0.512499	0.918862	1.15263	-0.596779	0.999344	0.986765	-0.545686	0.848672	1.20313	-0.600342	0.821782	1.20119	-0.53196	0.78595	0.181375	-0.503439	0.883332	0.995439	-0.396586	1.07937	0.38906	-0.441487	0.972249	0.389197	-0.48535	0.898793	0.318196	-0.42473	1.02697	0.787251	-0.511031	1.13704	0.718029	-0.495264	1.10939	0.58296	-0.488978	0.816188	0.1735	-0.398822	0.98006	1.37537	-0.550023	0.912597	1.33209	-0.51567	0.944073	1.27754	-0.571635	1.03418	1.4092	-0.13108	1.03535	0.962947	-0.205082	0.772838	0.0902096	-0.354428	1.05383	0.917836	-0.0943876	0.958731	1.07042	-0.0635625	0.990389	0.887812	-0.099909	0.883802	1.12909	-0.0712551	0.864541	1.12837	-0.134917	0.969979	0.0454156	-0.269125	0.873142	0.996751	-0.298722	1.05185	0.342265	-0.30891	0.980453	0.305096	-0.254041	0.950031	0.192177	-0.327064	0.98356	0.801012	-0.166385	1.0761	0.667987	-0.198076	1.02888	0.568323	-0.224025	0.985399	0.0743823	-0.376166	1.00455	1.32005	-0.0920552	1.00263	1.2309	-0.112957	0.91718	1.23675	-0.0920182
